<mxfile host="app.diagrams.net" modified="2023-05-10T07:48:26.473Z" agent="Mozilla/5.0 (Windows NT 10.0; Win64; x64) AppleWebKit/537.36 (KHTML, like Gecko) Chrome/112.0.0.0 Safari/537.36 Edg/112.0.1722.58" version="21.2.9" etag="MA0dmHYMasyV4u_fMuJz" type="github">
  <diagram name="第 1 页" id="eD5t-ZF0L70Ck6HZIHbQ">
    <mxGraphModel>
      <root>
        <mxCell id="0" />
        <mxCell id="1" parent="0" />
      </root>
    </mxGraphModel>
  </diagram>
</mxfile>
